# xmcd CD database file
#
# Track frame offsets:
#	150
#	21918
#	37472
#	59714
#	67148
#	83971
#	101189
#	118254
#	137032
#	158112
#	180433
#	195760
#	205215
#	221947
#	234596
#	250402
#	263476
#	275727
#	292423
#	310729
#
# Disc length: 4381 seconds
#
# Revision: 0
# Processed by: cddbd v1.5PL3 Copyright (c) Steve Scherf et al.
# Submitted via: CDex 1.51
#
DISCID=46111b14
DTITLE=Beto and os Irmanos - Sibulindo 2
DYEAR=1900
DGENRE=Salsa
TTITLE0=Reboladeira
TTITLE1=Ciumeira
TTITLE2=Mexa Lomba Lomba
TTITLE3=Ragamoufe
TTITLE4=Reboliço
TTITLE5=Saravà
TTITLE6=Pescaria
TTITLE7=Bambea
TTITLE8=Flor de Lis
TTITLE9=Pot-pourri de Samba
TTITLE10=Porucutu
TTITLE11=Mascarada
TTITLE12=Sebulindo
TTITLE13=I Love IIE
TTITLE14=Formigueiro
TTITLE15=Mensageiro
TTITLE16=S'imbora nenem
TTITLE17=Nana
TTITLE18=Samba Lulù
TTITLE19=Happy
EXTD=
EXTT0=
EXTT1=
EXTT2=
EXTT3=
EXTT4=
EXTT5=
EXTT6=
EXTT7=
EXTT8=
EXTT9=
EXTT10=
EXTT11=
EXTT12=
EXTT13=
EXTT14=
EXTT15=
EXTT16=
EXTT17=
EXTT18=
EXTT19=
PLAYORDER=
